<?xml version="1.0" encoding="UTF-8"?>
<svg version="1.1" xmlns="http://www.w3.org/2000/svg" width="366" height="482">
<path d="M0 0 C5.03018949 3.26921553 9.65589709 3.68481434 15.53515625 4.3359375 C27.27419332 6.12994317 37.36215334 12.85085814 44.78125 21.98046875 C51.10039207 31.32432212 51.71851998 40.90056407 51.0625 51.875 C50.20557297 56.09654851 48.98940992 60.02118017 47.0625 63.875 C47.04216463 66.06250469 47.0707397 68.25057382 47.125 70.4375 C47.19792157 84.71554319 42.9583492 93.84600083 33.05859375 104.03515625 C22.72310635 114.15650601 9.65994789 118.51569379 -4.5 119.5 C-5.80066406 119.59539062 -7.10132813 119.69078125 -8.44140625 119.7890625 C-11.28792346 119.85903276 -13.28059114 119.78091803 -15.9375 118.875 C-16.30875 119.679375 -16.30875 119.679375 -16.6875 120.5 C-18.24402537 123.4573982 -19.97185673 126.17224051 -21.9375 128.875 C-22.5975 128.875 -23.2575 128.875 -23.9375 128.875 C-23.9375 129.535 -23.9375 130.195 -23.9375 130.875 C-24.5975 130.875 -25.2575 130.875 -25.9375 130.875 C-25.9375 131.535 -25.9375 132.195 -25.9375 132.875 C-30.2288895 137.30349459 -35.86438603 139.98213862 -41.375 142.5625 C-41.98287354 142.84762451 -42.59074707 143.13274902 -43.21704102 143.42651367 C-50.9979489 146.95541277 -58.54223358 149.30795158 -67.0625 150.125 C-67.87565674 150.2079834 -68.68881348 150.2909668 -69.52661133 150.37646484 C-77.09445064 151.05766643 -84.39192846 150.70963721 -91.9375 149.875 C-92.19144531 150.46410156 -92.44539063 151.05320313 -92.70703125 151.66015625 C-97.40358593 160.11395468 -109.00340714 166.81375936 -117.9375 169.875 C-125.21220507 171.75207413 -132.48539268 173.00164241 -139.9375 173.875 C-136.99208092 177.05393302 -134.00115396 180.18620485 -131 183.3125 C-130.16919922 184.21033203 -129.33839844 185.10816406 -128.48242188 186.03320312 C-123.75046318 190.91246015 -120.84668457 193.64673006 -113.94946289 193.7590332 C-107.02550455 194.15812072 -101.10657638 202.48670832 -96.5625 207.125 C-95.73105469 207.96546875 -94.89960937 208.8059375 -94.04296875 209.671875 C-92.00318453 211.73510502 -89.96823714 213.80287123 -87.9375 215.875 C-84.44203975 214.24007812 -82.37728636 212.40992328 -79.75 209.5625 C-72.19615759 201.88543015 -62.79024344 197.07638609 -51.83758545 196.79550171 C-48.46768124 196.97031192 -45.13031263 197.26189699 -41.7734375 197.60546875 C-40.54194977 197.71595047 -39.31046204 197.82643219 -38.04165649 197.94026184 C-34.12997298 198.29589053 -30.22153303 198.67894396 -26.3125 199.0625 C-23.7124013 199.3018932 -21.11214104 199.53953837 -18.51171875 199.77539062 C-11.31618189 200.43578472 -4.12575427 201.1397192 3.0625 201.875 C3.99747314 201.97059204 4.93244629 202.06618408 5.89575195 202.16467285 C18.78855635 203.50831095 28.50233546 205.12067611 38.19874573 214.35725403 C38.76357149 214.88733781 39.32839725 215.41742159 39.91033894 215.96356851 C45.57881345 221.30782426 51.1213106 226.77833519 56.63256836 232.28393555 C57.71814969 233.36486912 58.80392031 234.4456126 59.88986206 235.52618408 C62.79475297 238.4181554 65.69648136 241.31327779 68.59716105 244.20947242 C70.4158285 246.02518156 72.23506985 247.84031384 74.05447578 249.65528297 C79.76662511 255.3538246 85.47681953 261.05431417 91.18411344 266.75771874 C97.73860149 273.30771259 104.2996102 279.85108219 110.86626905 286.38887376 C115.97084245 291.47179319 121.06959997 296.56049936 126.16402537 301.65358955 C129.19532934 304.68385015 132.22896772 307.71167805 135.26872063 310.73346519 C138.12284053 313.57103499 140.96962583 316.41576773 143.81110764 319.26599121 C144.84929926 320.30494892 145.89001931 321.34138774 146.9335537 322.37497902 C156.7632971 332.11658257 164.85441637 341.37675712 165.5625 355.6875 C165.03261129 372.38959209 152.5159526 384.10562734 141.0625 394.875 C139.0957028 396.58843249 137.08618621 398.22781355 135.0625 399.875 C133.38532676 401.53109344 131.7201858 403.1994006 130.0625 404.875 C128.66273864 406.26669822 127.26295466 407.65837392 125.86248779 409.04936218 C123.73525803 411.16313858 121.61075707 413.27964936 119.48632812 415.39624023 C118.36415989 416.51333449 117.24110254 417.62953627 116.1171875 418.74487305 C114.48724084 420.36273725 112.86050439 421.98376898 111.234375 423.60546875 C110.73025085 424.10443161 110.22612671 424.60339447 109.70672607 425.11747742 C107.04992545 427.74320556 107.04992545 427.74320556 105.0625 430.875 C104.4025 430.875 103.7425 430.875 103.0625 430.875 C103.0625 431.535 103.0625 432.195 103.0625 432.875 C102.4025 432.875 101.7425 432.875 101.0625 432.875 C101.0625 433.535 101.0625 434.195 101.0625 434.875 C99.48828125 436.390625 99.48828125 436.390625 97.375 438.125 C94.70900867 440.37575728 92.35239909 442.57549545 90.1875 445.3125 C89.48625 446.158125 88.785 447.00375 88.0625 447.875 C87.4025 447.875 86.7425 447.875 86.0625 447.875 C85.4025 449.195 84.7425 450.515 84.0625 451.875 C83.4025 451.875 82.7425 451.875 82.0625 451.875 C81.79695313 452.46539062 81.53140625 453.05578125 81.2578125 453.6640625 C76.60659577 462.26729345 66.6020855 468.87356276 57.62109375 472.11328125 C48.34444616 474.8750313 40.96357483 473.66852612 32.0625 469.875 C29.106284 468.14598627 26.6151041 466.14816113 24.0625 463.875 C23.31613281 463.25753906 22.56976563 462.64007813 21.80078125 462.00390625 C17.68326782 458.54749445 17.68326782 458.54749445 16.0625 456.875 C16.0625 456.215 16.0625 455.555 16.0625 454.875 C15.21579742 454.53464218 15.21579742 454.53464218 14.35198975 454.18740845 C11.41229556 452.5022821 9.66625144 450.42773916 7.43066406 447.87646484 C-0.31866018 439.2057177 -8.6020346 431.06617578 -16.828125 422.8515625 C-18.54455891 421.13445345 -20.26084448 419.41719611 -21.97698975 417.69979858 C-25.55237546 414.12294776 -29.12954024 410.54788858 -32.70800781 406.97412109 C-37.2830324 402.40481478 -41.85352285 397.83100356 -46.42270279 393.25585365 C-49.95713419 389.71780294 -53.49395091 386.18214444 -57.03148651 382.64719772 C-58.71784496 380.96150363 -60.40346844 379.27507392 -62.0883255 377.58787918 C-64.44220841 375.23144481 -66.79929337 372.87825951 -69.15722656 370.52587891 C-69.84413574 369.8369455 -70.53104492 369.14801208 -71.23876953 368.4382019 C-74.86203057 364.83065855 -78.55962805 361.39206957 -82.48446274 358.11383629 C-83.6853447 357.08998357 -84.82161652 355.99088348 -85.9375 354.875 C-86.35 355.28492188 -86.7625 355.69484375 -87.1875 356.1171875 C-91.37077277 360.02033039 -95.07101597 362.69483926 -100.9375 362.875 C-111.90688186 361.16437515 -120.4188061 349.6025034 -127.8125 342.25 C-128.77080511 341.31247115 -129.72913829 340.37497099 -130.6875 339.4375 C-131.59242188 338.53773438 -132.49734375 337.63796875 -133.4296875 336.7109375 C-134.24808105 335.90188965 -135.06647461 335.0928418 -135.90966797 334.25927734 C-139.38724153 330.17042791 -140.3938201 326.37160266 -140.26171875 320.99609375 C-139.45142248 315.69499887 -136.32280559 310.93736671 -132.9375 306.875 C-133.55109375 306.18148438 -134.1646875 305.48796875 -134.796875 304.7734375 C-139.41036558 298.5267039 -141.81168487 289.59696637 -140.9375 281.875 C-140.50703369 280.83762695 -140.50703369 280.83762695 -140.06787109 279.77929688 C-139.02278009 276.88519871 -138.64664745 274.95692849 -138.9375 271.875 C-142.05854856 267.27738065 -146.06348596 263.75067666 -150.1875 260.0625 C-151.82905575 258.54894221 -153.46179704 257.02687675 -155.08782959 255.49665833 C-156.56576242 254.11305329 -158.06605471 252.75344712 -159.56738281 251.39526367 C-161.93393525 248.87879058 -163.03978353 247.18323261 -163.9375 243.875 C-163.82019531 242.78574219 -163.70289063 241.69648438 -163.58203125 240.57421875 C-164.12695067 234.90346386 -167.58042121 232.43639157 -171.625 228.6875 C-172.34623047 227.98947266 -173.06746094 227.29144531 -173.81054688 226.57226562 C-176.73497706 223.76534679 -179.6581067 221.09372076 -182.8515625 218.59375 C-186.63782888 215.47397995 -187.68904903 211.11725487 -188.625 206.4375 C-190.24753775 202.03346897 -192.66818631 200.01391673 -196.02734375 196.84375 C-199.79238275 192.963219 -200.77579222 189.33037002 -201.375 183.9375 C-200.96195467 175.67659332 -196.01073385 170.41147721 -190.25390625 164.9296875 C-182.30061787 157.875 -182.30061787 157.875 -177.9375 157.875 C-178.28683594 157.06675781 -178.63617188 156.25851563 -178.99609375 155.42578125 C-179.67865234 153.82283203 -179.67865234 153.82283203 -180.375 152.1875 C-180.82746094 151.13175781 -181.27992188 150.07601562 -181.74609375 148.98828125 C-185.58205071 138.96448551 -183.88808179 129.63100504 -179.68359375 120.00390625 C-173.39840418 107.65616326 -163.20989074 99.33513742 -150.2109375 94.484375 C-147.13395932 93.53245582 -144.06265607 92.6524529 -140.9375 91.875 C-141.1025 90.885 -141.2675 89.895 -141.4375 88.875 C-143.24705627 75.84094974 -139.61838063 66.31840363 -132.37109375 55.546875 C-131.66146484 54.71929687 -131.66146484 54.71929687 -130.9375 53.875 C-130.2775 53.875 -129.6175 53.875 -128.9375 53.875 C-128.6075 52.885 -128.2775 51.895 -127.9375 50.875 C-120.9411245 44.71697015 -112.27716572 40.84306675 -103.9375 36.875 C-101.33836642 35.57543321 -101.24322088 34.54208433 -100.1875 31.875 C-93.0655228 15.31837404 -79.13376181 4.94104411 -62.9375 -2.125 C-60.03401152 -3.16273993 -57.10256128 -4.01476731 -54.125 -4.8125 C-53.3323877 -5.02600098 -52.53977539 -5.23950195 -51.72314453 -5.45947266 C-34.93246759 -9.83115187 -14.90584361 -9.91299193 0 0 Z " fill="#2B2B2B" transform="translate(200.9375,8.125)"/>
<path d="M0 0 C5.03018949 3.26921553 9.65589709 3.68481434 15.53515625 4.3359375 C27.27419332 6.12994317 37.36215334 12.85085814 44.78125 21.98046875 C51.10039207 31.32432212 51.71851998 40.90056407 51.0625 51.875 C50.20557297 56.09654851 48.98940992 60.02118017 47.0625 63.875 C47.04216463 66.06250469 47.0707397 68.25057382 47.125 70.4375 C47.19792157 84.71554319 42.9583492 93.84600083 33.05859375 104.03515625 C22.72310635 114.15650601 9.65994789 118.51569379 -4.5 119.5 C-5.80066406 119.59539062 -7.10132813 119.69078125 -8.44140625 119.7890625 C-11.28792346 119.85903276 -13.28059114 119.78091803 -15.9375 118.875 C-16.30875 119.679375 -16.30875 119.679375 -16.6875 120.5 C-18.24402537 123.4573982 -19.97185673 126.17224051 -21.9375 128.875 C-22.5975 128.875 -23.2575 128.875 -23.9375 128.875 C-23.9375 129.535 -23.9375 130.195 -23.9375 130.875 C-24.5975 130.875 -25.2575 130.875 -25.9375 130.875 C-25.9375 131.535 -25.9375 132.195 -25.9375 132.875 C-30.2288895 137.30349459 -35.86438603 139.98213862 -41.375 142.5625 C-41.98287354 142.84762451 -42.59074707 143.13274902 -43.21704102 143.42651367 C-50.9979489 146.95541277 -58.54223358 149.30795158 -67.0625 150.125 C-67.87565674 150.2079834 -68.68881348 150.2909668 -69.52661133 150.37646484 C-77.09445064 151.05766643 -84.39192846 150.70963721 -91.9375 149.875 C-92.19144531 150.46410156 -92.44539063 151.05320313 -92.70703125 151.66015625 C-97.40358593 160.11395468 -109.00340714 166.81375936 -117.9375 169.875 C-125.21220507 171.75207413 -132.48539268 173.00164241 -139.9375 173.875 C-136.99208092 177.05393302 -134.00115396 180.18620485 -131 183.3125 C-130.16919922 184.21033203 -129.33839844 185.10816406 -128.48242188 186.03320312 C-123.75046318 190.91246015 -120.84668457 193.64673006 -113.94946289 193.7590332 C-107.02550455 194.15812072 -101.10657638 202.48670832 -96.5625 207.125 C-95.73105469 207.96546875 -94.89960937 208.8059375 -94.04296875 209.671875 C-92.00318453 211.73510502 -89.96823714 213.80287123 -87.9375 215.875 C-84.44203975 214.24007812 -82.37728636 212.40992328 -79.75 209.5625 C-72.19615759 201.88543015 -62.79024344 197.07638609 -51.83758545 196.79550171 C-48.46768124 196.97031192 -45.13031263 197.26189699 -41.7734375 197.60546875 C-40.54194977 197.71595047 -39.31046204 197.82643219 -38.04165649 197.94026184 C-34.12997298 198.29589053 -30.22153303 198.67894396 -26.3125 199.0625 C-23.7124013 199.3018932 -21.11214104 199.53953837 -18.51171875 199.77539062 C-11.31618189 200.43578472 -4.12575427 201.1397192 3.0625 201.875 C3.99747314 201.97059204 4.93244629 202.06618408 5.89575195 202.16467285 C18.78855635 203.50831095 28.50233546 205.12067611 38.19874573 214.35725403 C38.76357149 214.88733781 39.32839725 215.41742159 39.91033894 215.96356851 C45.57881345 221.30782426 51.1213106 226.77833519 56.63256836 232.28393555 C57.71814969 233.36486912 58.80392031 234.4456126 59.88986206 235.52618408 C62.79475297 238.4181554 65.69648136 241.31327779 68.59716105 244.20947242 C70.4158285 246.02518156 72.23506985 247.84031384 74.05447578 249.65528297 C79.76662511 255.3538246 85.47681953 261.05431417 91.18411344 266.75771874 C97.73860149 273.30771259 104.2996102 279.85108219 110.86626905 286.38887376 C115.97084245 291.47179319 121.06959997 296.56049936 126.16402537 301.65358955 C129.19532934 304.68385015 132.22896772 307.71167805 135.26872063 310.73346519 C138.12284053 313.57103499 140.96962583 316.41576773 143.81110764 319.26599121 C144.84929926 320.30494892 145.89001931 321.34138774 146.9335537 322.37497902 C156.7632971 332.11658257 164.85441637 341.37675712 165.5625 355.6875 C165.03261129 372.38959209 152.5159526 384.10562734 141.0625 394.875 C139.0957028 396.58843249 137.08618621 398.22781355 135.0625 399.875 C133.38532676 401.53109344 131.7201858 403.1994006 130.0625 404.875 C128.66273864 406.26669822 127.26295466 407.65837392 125.86248779 409.04936218 C123.73525803 411.16313858 121.61075707 413.27964936 119.48632812 415.39624023 C118.36415989 416.51333449 117.24110254 417.62953627 116.1171875 418.74487305 C114.48724084 420.36273725 112.86050439 421.98376898 111.234375 423.60546875 C110.73025085 424.10443161 110.22612671 424.60339447 109.70672607 425.11747742 C107.04992545 427.74320556 107.04992545 427.74320556 105.0625 430.875 C104.4025 430.875 103.7425 430.875 103.0625 430.875 C103.0625 431.535 103.0625 432.195 103.0625 432.875 C102.4025 432.875 101.7425 432.875 101.0625 432.875 C101.0625 433.535 101.0625 434.195 101.0625 434.875 C99.48828125 436.390625 99.48828125 436.390625 97.375 438.125 C94.70900867 440.37575728 92.35239909 442.57549545 90.1875 445.3125 C89.48625 446.158125 88.785 447.00375 88.0625 447.875 C87.4025 447.875 86.7425 447.875 86.0625 447.875 C85.4025 449.195 84.7425 450.515 84.0625 451.875 C83.4025 451.875 82.7425 451.875 82.0625 451.875 C81.79695313 452.46539062 81.53140625 453.05578125 81.2578125 453.6640625 C76.60659577 462.26729345 66.6020855 468.87356276 57.62109375 472.11328125 C48.34444616 474.8750313 40.96357483 473.66852612 32.0625 469.875 C29.106284 468.14598627 26.6151041 466.14816113 24.0625 463.875 C23.31613281 463.25753906 22.56976563 462.64007813 21.80078125 462.00390625 C17.68326782 458.54749445 17.68326782 458.54749445 16.0625 456.875 C16.0625 456.215 16.0625 455.555 16.0625 454.875 C15.21579742 454.53464218 15.21579742 454.53464218 14.35198975 454.18740845 C11.41229556 452.5022821 9.66625144 450.42773916 7.43066406 447.87646484 C-0.31866018 439.2057177 -8.6020346 431.06617578 -16.828125 422.8515625 C-18.54455891 421.13445345 -20.26084448 419.41719611 -21.97698975 417.69979858 C-25.55237546 414.12294776 -29.12954024 410.54788858 -32.70800781 406.97412109 C-37.2830324 402.40481478 -41.85352285 397.83100356 -46.42270279 393.25585365 C-49.95713419 389.71780294 -53.49395091 386.18214444 -57.03148651 382.64719772 C-58.71784496 380.96150363 -60.40346844 379.27507392 -62.0883255 377.58787918 C-64.44220841 375.23144481 -66.79929337 372.87825951 -69.15722656 370.52587891 C-69.84413574 369.8369455 -70.53104492 369.14801208 -71.23876953 368.4382019 C-74.86203057 364.83065855 -78.55962805 361.39206957 -82.48446274 358.11383629 C-83.6853447 357.08998357 -84.82161652 355.99088348 -85.9375 354.875 C-86.35 355.28492188 -86.7625 355.69484375 -87.1875 356.1171875 C-91.37077277 360.02033039 -95.07101597 362.69483926 -100.9375 362.875 C-111.90688186 361.16437515 -120.4188061 349.6025034 -127.8125 342.25 C-128.77080511 341.31247115 -129.72913829 340.37497099 -130.6875 339.4375 C-131.59242188 338.53773438 -132.49734375 337.63796875 -133.4296875 336.7109375 C-134.24808105 335.90188965 -135.06647461 335.0928418 -135.90966797 334.25927734 C-139.38724153 330.17042791 -140.3938201 326.37160266 -140.26171875 320.99609375 C-139.45142248 315.69499887 -136.32280559 310.93736671 -132.9375 306.875 C-133.55109375 306.18148438 -134.1646875 305.48796875 -134.796875 304.7734375 C-139.41036558 298.5267039 -141.81168487 289.59696637 -140.9375 281.875 C-140.50703369 280.83762695 -140.50703369 280.83762695 -140.06787109 279.77929688 C-139.02278009 276.88519871 -138.64664745 274.95692849 -138.9375 271.875 C-142.05854856 267.27738065 -146.06348596 263.75067666 -150.1875 260.0625 C-151.82905575 258.54894221 -153.46179704 257.02687675 -155.08782959 255.49665833 C-156.56576242 254.11305329 -158.06605471 252.75344712 -159.56738281 251.39526367 C-161.93393525 248.87879058 -163.03978353 247.18323261 -163.9375 243.875 C-163.82019531 242.78574219 -163.70289063 241.69648438 -163.58203125 240.57421875 C-164.12695067 234.90346386 -167.58042121 232.43639157 -171.625 228.6875 C-172.34623047 227.98947266 -173.06746094 227.29144531 -173.81054688 226.57226562 C-176.73497706 223.76534679 -179.6581067 221.09372076 -182.8515625 218.59375 C-186.63782888 215.47397995 -187.68904903 211.11725487 -188.625 206.4375 C-190.24753775 202.03346897 -192.66818631 200.01391673 -196.02734375 196.84375 C-199.79238275 192.963219 -200.77579222 189.33037002 -201.375 183.9375 C-200.96195467 175.67659332 -196.01073385 170.41147721 -190.25390625 164.9296875 C-182.30061787 157.875 -182.30061787 157.875 -177.9375 157.875 C-178.28683594 157.06675781 -178.63617188 156.25851563 -178.99609375 155.42578125 C-179.67865234 153.82283203 -179.67865234 153.82283203 -180.375 152.1875 C-180.82746094 151.13175781 -181.27992188 150.07601562 -181.74609375 148.98828125 C-185.58205071 138.96448551 -183.88808179 129.63100504 -179.68359375 120.00390625 C-173.39840418 107.65616326 -163.20989074 99.33513742 -150.2109375 94.484375 C-147.13395932 93.53245582 -144.06265607 92.6524529 -140.9375 91.875 C-141.1025 90.885 -141.2675 89.895 -141.4375 88.875 C-143.24705627 75.84094974 -139.61838063 66.31840363 -132.37109375 55.546875 C-131.66146484 54.71929687 -131.66146484 54.71929687 -130.9375 53.875 C-130.2775 53.875 -129.6175 53.875 -128.9375 53.875 C-128.6075 52.885 -128.2775 51.895 -127.9375 50.875 C-120.9411245 44.71697015 -112.27716572 40.84306675 -103.9375 36.875 C-101.33836642 35.57543321 -101.24322088 34.54208433 -100.1875 31.875 C-93.0655228 15.31837404 -79.13376181 4.94104411 -62.9375 -2.125 C-60.03401152 -3.16273993 -57.10256128 -4.01476731 -54.125 -4.8125 C-53.3323877 -5.02600098 -52.53977539 -5.23950195 -51.72314453 -5.45947266 C-34.93246759 -9.83115187 -14.90584361 -9.91299193 0 0 Z M-82.6796875 223.953125 C-83.97787982 225.24794239 -85.27681301 226.54201736 -86.57644653 227.83538818 C-89.28572291 230.53732795 -91.98583883 233.24801313 -94.6796875 235.96533203 C-98.11911287 239.43327077 -101.58054365 242.87823361 -105.04916191 246.31694412 C-107.73153127 248.98117839 -110.40179535 251.65729076 -113.06863785 254.33705902 C-114.33992619 255.61166269 -115.61488366 256.88261841 -116.89367294 258.14969635 C-127.38052577 268.48541227 -127.38052577 268.48541227 -132.50390625 282.02734375 C-132.50261719 282.94644531 -132.50132812 283.86554688 -132.5 284.8125 C-132.52191406 285.72902344 -132.54382813 286.64554687 -132.56640625 287.58984375 C-130.17225862 300.09591928 -120.47801669 308.05070015 -111.84106445 316.63427734 C-110.27918864 318.20457426 -108.71836911 319.7759224 -107.15852356 321.34823608 C-102.93447665 325.59926766 -98.6947747 329.83434904 -94.45119119 334.0658679 C-90.90505695 337.604857 -87.36678353 341.15165281 -83.82848805 344.69847643 C-75.00366818 353.54436563 -66.16383452 362.37509967 -57.31676611 371.19872208 C-50.12348938 378.37374532 -42.94492664 385.56322558 -35.77661133 392.76318359 C-27.43613942 401.14047071 -19.0854737 409.50743474 -10.7203061 417.86007655 C-6.2981438 422.2757588 -1.88031111 426.69555448 2.52667809 431.12638474 C6.67061205 435.29159399 10.82893641 439.44188477 14.99865913 443.58127213 C16.52355555 445.09984998 18.04339811 446.62352283 19.55767059 448.1526947 C21.631281 450.24504205 23.72266463 452.31789842 25.81938171 454.38705444 C26.40939443 454.99113361 26.99940714 455.59521277 27.60729903 456.21759737 C33.11623887 461.58233229 39.37323015 464.40652129 47 465.375 C57.36411546 464.71036568 64.50080306 459.46116792 71.50952148 452.28613281 C72.81902519 450.98780014 72.81902519 450.98780014 74.15498352 449.66323853 C76.52322674 447.30776577 78.87489123 444.93789797 81.21972537 442.55925846 C83.68872363 440.06114047 86.17620129 437.58153931 88.66114807 435.0993042 C92.82781236 430.93165331 96.98060154 426.75057498 101.12475586 422.56054688 C105.90327779 417.72936614 110.70084731 412.91778943 115.5096125 408.1167233 C120.15435152 403.47891911 124.78756818 398.82977903 129.41493416 394.17464447 C131.37606609 392.20186525 133.34067596 390.23265139 135.3081646 388.26621246 C138.05783116 385.51639573 140.7903238 382.74988974 143.52124023 379.98144531 C144.3311441 379.17492523 145.14104797 378.36840515 145.97549438 377.53744507 C152.28027302 371.10085374 156.64797694 365.27746383 156.5625 355.875 C156.16188797 344.46362705 150.78278836 338.87510112 143.0625 330.875 C142.35222656 330.13636719 141.64195312 329.39773438 140.91015625 328.63671875 C138.04042306 325.71190431 135.17707343 322.96852933 132 320.375 C129.67595954 318.39709323 127.89311109 316.59510581 125.94273376 314.29264832 C121.83991524 309.55608445 117.46779923 305.12525146 113.04125977 300.69262695 C112.165513 299.81191528 111.28976624 298.93120361 110.38748169 298.02380371 C108.00720352 295.63151111 105.62470273 293.24148437 103.24064755 290.85295892 C101.74708995 289.35645149 100.25411324 287.85936683 98.76130486 286.36211205 C94.07777237 281.66494809 89.39227388 276.96975871 84.70386082 272.27746612 C79.31406849 266.88318723 73.93089303 261.48241784 68.55333668 256.07594138 C64.37838631 251.87932756 60.19764321 247.68854194 56.01251453 243.50207871 C53.52044087 241.00896145 51.03081212 238.51351878 48.5472126 236.01195717 C45.77754102 233.22263919 42.99588803 230.44545954 40.21313477 227.66918945 C39.40197708 226.84881699 38.5908194 226.02844452 37.75508118 225.18321228 C28.68647811 216.18049294 20.82662638 211.84757533 8.109375 210.875 C7.13575012 210.79378906 6.16212524 210.71257812 5.15899658 210.62890625 C2.04405178 210.37022399 -1.07161151 210.12203235 -4.1875 209.875 C-8.25554982 209.54574905 -12.32319519 209.21181978 -16.390625 208.875 C-17.87495277 208.75294945 -17.87495277 208.75294945 -19.38926697 208.62843323 C-26.72574205 208.01177533 -34.02433871 207.21409016 -41.32739258 206.28491211 C-60.66782813 204.08888916 -69.57355663 210.72563245 -82.6796875 223.953125 Z " fill="#FAFAFA" transform="translate(200.9375,8.125)"/>
<path d="M0 0 C0.74056641 0.00451172 1.48113281 0.00902344 2.24414062 0.01367188 C4.05862899 0.02537825 5.87307534 0.04331102 7.6875 0.0625 C4.75681741 2.30121587 1.74541321 4.37713775 -1.3125 6.4375 C-4.95611799 8.96868595 -7.82102511 11.32528767 -10.3125 15.0625 C-9.82523437 14.67578125 -9.33796875 14.2890625 -8.8359375 13.890625 C0.34988934 7.14321765 10.36518557 4.74064932 21.625 4.625 C22.67107422 4.60977295 22.67107422 4.60977295 23.73828125 4.59423828 C28.821427 4.6806615 32.18492584 5.94428055 36.6875 8.0625 C37.96625 8.330625 39.245 8.59875 40.5625 8.875 C50.24316955 11.19238036 57.92707822 18.99800476 63.0390625 27.2421875 C68.28297419 37.2395731 67.51171641 48.35530592 64.6875 59.0625 C63.5145559 62.15155125 62.18514508 65.11810069 60.6875 68.0625 C61.6775 67.4025 62.6675 66.7425 63.6875 66.0625 C62.58073699 74.4769311 56.12359812 81.18323664 49.8125 86.4375 C45.05879382 90.00277964 40.12364939 92.69150947 34.6875 95.0625 C34.04425781 95.37058594 33.40101563 95.67867188 32.73828125 95.99609375 C26.64925287 98.66403281 20.25602169 98.77212328 13.6875 99.0625 C13.79191406 97.86367187 13.79191406 97.86367187 13.8984375 96.640625 C14.33516917 87.78121113 12.62372406 81.47962424 7.6875 74.0625 C7.0275 73.7325 6.3675 73.4025 5.6875 73.0625 C6.0175 74.0525 6.3475 75.0425 6.6875 76.0625 C7.26349958 84.06003257 6.7099396 90.63233598 3.6875 98.0625 C-5.96044304 97.22354843 -13.33894486 93.73285709 -20.3125 87.0625 C-16.64214369 95.77959623 -11.0428316 101.35210907 -2.3125 105.0625 C-7.31263751 116.74703188 -21.34666066 122.33770554 -32.37402344 126.91894531 C-39.69084331 129.7935344 -46.39315919 130.20130002 -54.1875 130.125 C-55.06664062 130.12048828 -55.94578125 130.11597656 -56.8515625 130.11132812 C-59.00523803 130.09962337 -61.15887817 130.08169069 -63.3125 130.0625 C-63.3125 128.4125 -63.3125 126.7625 -63.3125 125.0625 C-62.6525 124.7325 -61.9925 124.4025 -61.3125 124.0625 C-60.73870018 115.26423604 -63.32290222 107.8557853 -68.32421875 100.65625 C-69.3125 99.0625 -69.3125 99.0625 -69.3125 97.0625 C-69.9725 97.0625 -70.6325 97.0625 -71.3125 97.0625 C-71.3125 96.4025 -71.3125 95.7425 -71.3125 95.0625 C-71.86808594 94.79308594 -72.42367187 94.52367188 -72.99609375 94.24609375 C-74.59532679 93.4289477 -76.17038882 92.56333941 -77.72265625 91.66015625 C-83.43901783 88.35156994 -88.75908375 86.10968652 -95.1953125 84.60546875 C-97.3125 84.0625 -97.3125 84.0625 -98.3125 83.0625 C-99.26400329 70.97372864 -97.72237402 61.62952543 -90.0234375 52.015625 C-81.58456457 42.38220841 -81.58456457 42.38220841 -76.3125 40.0625 C-75.99796875 40.88234375 -75.6834375 41.7021875 -75.359375 42.546875 C-74.93140625 43.62453125 -74.5034375 44.7021875 -74.0625 45.8125 C-73.64484375 46.87984375 -73.2271875 47.9471875 -72.796875 49.046875 C-71.31357369 52.06031871 -69.81518319 53.85928317 -67.3125 56.0625 C-67.35890625 55.38445312 -67.4053125 54.70640625 -67.453125 54.0078125 C-67.78084441 45.55733337 -66.01008719 39.10888079 -61.3125 32.0625 C-54.58676875 29.60724085 -47.41574695 28.65443725 -40.3125 28.0625 C-47.7375 27.0725 -47.7375 27.0725 -55.3125 26.0625 C-50.04902897 15.53555794 -36.18211928 8.30915714 -25.35693359 4.34667969 C-21.39077401 3.04626675 -17.37961833 1.99257745 -13.3125 1.0625 C-12.52746094 0.8665625 -11.74242187 0.670625 -10.93359375 0.46875 C-7.28916636 -0.09610909 -3.67654814 -0.04271236 0 0 Z " fill="#FBFBFB" transform="translate(175.3125,16.9375)"/>
<path d="M0 0 C5.03018949 3.26921553 9.65589709 3.68481434 15.53515625 4.3359375 C27.27419332 6.12994317 37.36215334 12.85085814 44.78125 21.98046875 C51.10039207 31.32432212 51.71851998 40.90056407 51.0625 51.875 C50.20557297 56.09654851 48.98940992 60.02118017 47.0625 63.875 C47.04216463 66.06250469 47.0707397 68.25057382 47.125 70.4375 C47.19792157 84.71554319 42.9583492 93.84600083 33.05859375 104.03515625 C22.72310635 114.15650601 9.65994789 118.51569379 -4.5 119.5 C-5.80066406 119.59539062 -7.10132813 119.69078125 -8.44140625 119.7890625 C-11.28792346 119.85903276 -13.28059114 119.78091803 -15.9375 118.875 C-16.30875 119.679375 -16.30875 119.679375 -16.6875 120.5 C-18.24402537 123.4573982 -19.97185673 126.17224051 -21.9375 128.875 C-22.5975 128.875 -23.2575 128.875 -23.9375 128.875 C-23.9375 129.535 -23.9375 130.195 -23.9375 130.875 C-24.5975 130.875 -25.2575 130.875 -25.9375 130.875 C-25.9375 131.535 -25.9375 132.195 -25.9375 132.875 C-30.2288895 137.30349459 -35.86438603 139.98213862 -41.375 142.5625 C-41.98287354 142.84762451 -42.59074707 143.13274902 -43.21704102 143.42651367 C-50.9979489 146.95541277 -58.54223358 149.30795158 -67.0625 150.125 C-67.87565674 150.2079834 -68.68881348 150.2909668 -69.52661133 150.37646484 C-77.09445064 151.05766643 -84.39192846 150.70963721 -91.9375 149.875 C-92.19144531 150.46410156 -92.44539063 151.05320313 -92.70703125 151.66015625 C-97.41181854 160.12877337 -109.00010868 166.79041362 -117.9375 169.875 C-131.61256019 173.62203054 -145.92373999 174.9746949 -158.9375 168 C-163.6187603 164.68410729 -167.53733077 161.60296502 -168.9375 155.875 C-169.18680071 152.5227011 -169.33972268 149.21699723 -168.9375 145.875 C-167.9475 144.885 -167.9475 144.885 -166.9375 143.875 C-166.59138672 144.88820312 -166.59138672 144.88820312 -166.23828125 145.921875 C-163.85952336 152.42820094 -161.89596605 155.94651654 -155.5 159.0625 C-141.81736328 163.40089701 -127.34217451 161.08143601 -114.625 155.0625 C-109.51919071 152.37558461 -103.61234483 149.22468967 -100.9375 143.875 C-101.5975 143.689375 -102.2575 143.50375 -102.9375 143.3125 C-108.48512306 140.65426395 -113.47655873 136.60457609 -115.9375 130.875 C-113.41576902 131.87647456 -110.90207941 132.88995415 -108.40234375 133.9453125 C-107.15130859 134.46738281 -107.15130859 134.46738281 -105.875 135 C-104.62009766 135.52980469 -104.62009766 135.52980469 -103.33984375 136.0703125 C-100.72760861 137.08674338 -100.72760861 137.08674338 -96.9375 136.875 C-96.9375 132.585 -96.9375 128.295 -96.9375 123.875 C-90.90808824 128.69852941 -90.90808824 128.69852941 -89.9375 131.875 C-89.78742694 134.56596527 -89.84750045 137.17501363 -89.9375 139.875 C-68.81104259 139.0169226 -47.26532481 134.59252728 -31.93359375 118.8125 C-30.5448072 117.21426768 -29.23014492 115.55194476 -27.9375 113.875 C-28.53949219 113.74222656 -29.14148438 113.60945313 -29.76171875 113.47265625 C-36.3523492 111.66230354 -41.05031252 106.22885717 -44.9375 100.875 C-46.375 97.375 -46.375 97.375 -46.9375 94.875 C-46.49921875 95.25011719 -46.0609375 95.62523438 -45.609375 96.01171875 C-38.68432175 101.59961741 -30.74441695 105.37766312 -21.9375 106.875 C-19.52938899 97.99509064 -18.84638554 88.90861446 -20.9375 79.875 C-15.52771534 84.51195828 -11.49474502 90.44208459 -10.58984375 97.640625 C-10.55170155 101.3676627 -10.75389907 104.32419722 -11.9375 107.875 C5.08931322 106.20964559 20.43693827 100.10349303 31.625 86.75 C34.36765265 83.27179186 35.82344887 80.1284591 37.0625 75.875 C36.0725 76.535 35.0825 77.195 34.0625 77.875 C34.330625 77.215 34.59875 76.555 34.875 75.875 C35.266875 74.885 35.65875 73.895 36.0625 72.875 C36.44148438 71.96814453 36.44148438 71.96814453 36.828125 71.04296875 C38.70918101 66.3679913 39.75694854 61.9212286 40.0625 56.875 C40.11535156 56.07964844 40.16820312 55.28429688 40.22265625 54.46484375 C40.57949318 44.42686571 37.33494718 36.66047308 31.0625 28.875 C25.37180824 22.98807749 19.22980698 19.0660656 11.0625 17.875 C10.01191406 17.38 8.96132812 16.885 7.87890625 16.375 C3.96446476 14.65890475 0.23801847 14.37580981 -4 14.4375 C-5.10601562 14.44885986 -5.10601562 14.44885986 -6.234375 14.46044922 C-17.40926308 14.78982953 -27.14575824 17.89742717 -35.9375 24.875 C-36.5975 24.545 -37.2575 24.215 -37.9375 23.875 C-32.53625417 17.93061213 -26.99877157 13.69503216 -19.9375 9.875 C-40.99975325 8.69024825 -61.00179086 15.91732469 -76.9375 29.875 C-78.30916373 31.51026578 -79.6535794 33.169977 -80.9375 34.875 C-80.380625 34.85179687 -79.82375 34.82859375 -79.25 34.8046875 C-73.76140985 34.67488976 -69.2081649 35.34171566 -63.9375 36.875 C-63.9375 37.205 -63.9375 37.535 -63.9375 37.875 C-79.68237472 39.98661731 -79.68237472 39.98661731 -86.9375 40.875 C-87.61311748 42.5380584 -88.27683281 44.20594605 -88.9375 45.875 C-89.47375 47.03 -90.01 48.185 -90.5625 49.375 C-92.71978792 55.01213427 -92.18186668 60.93779469 -91.9375 66.875 C-96.29117568 63.00506606 -98.54019179 59.14070319 -100.9375 53.875 C-101.59951689 52.53935189 -102.26491405 51.20535723 -102.9375 49.875 C-111.81985392 57.45835355 -120.21177575 65.07919334 -122.9375 76.875 C-123.24417301 81.90542663 -123.17925512 86.83843506 -122.9375 91.875 C-122.10347656 92.10574219 -121.26945312 92.33648437 -120.41015625 92.57421875 C-111.78288893 95.07444628 -103.8881464 98.03893387 -96.9375 103.875 C-96.9375 104.535 -96.9375 105.195 -96.9375 105.875 C-96.2775 105.875 -95.6175 105.875 -94.9375 105.875 C-93.5 107.88671875 -93.5 107.88671875 -91.9375 110.5625 C-91.421875 111.43261719 -90.90625 112.30273438 -90.375 113.19921875 C-87.84764444 117.90367135 -86.68282479 121.30597859 -86.8125 126.6875 C-86.83054687 127.66332031 -86.84859375 128.63914063 -86.8671875 129.64453125 C-86.89039062 130.38058594 -86.91359375 131.11664063 -86.9375 131.875 C-88.00580058 130.27254913 -89.06449474 128.66200531 -90.05078125 127.0078125 C-94.46554926 119.61631166 -99.55053578 115.18253497 -106.9375 110.875 C-106.6075 111.205 -106.2775 111.535 -105.9375 111.875 C-105.6075 112.535 -105.2775 113.195 -104.9375 113.875 C-113.38485808 114.67192057 -119.973853 111.51743133 -126.9375 106.875 C-139.90449373 105.98072457 -152.45621198 111.03124268 -162.4375 119.25 C-170.02346814 126.51108728 -175.57806924 136.35805368 -176.02734375 147.00390625 C-176.08799468 151.09447462 -175.9665759 154.8873309 -174.9375 158.875 C-180.967633 154.35240025 -182.29099952 147.9921311 -183.9375 140.875 C-185.27395793 129.80149142 -179.92424631 118.25074871 -173.2265625 109.6875 C-164.47470547 100.2340173 -153.27344794 94.94384466 -140.9375 91.875 C-141.1025 90.885 -141.2675 89.895 -141.4375 88.875 C-143.24705627 75.84094974 -139.61838063 66.31840363 -132.37109375 55.546875 C-131.89800781 54.99515625 -131.42492187 54.4434375 -130.9375 53.875 C-130.2775 53.875 -129.6175 53.875 -128.9375 53.875 C-128.6075 52.885 -128.2775 51.895 -127.9375 50.875 C-120.9411245 44.71697015 -112.27716572 40.84306675 -103.9375 36.875 C-101.33836642 35.57543321 -101.24322088 34.54208433 -100.1875 31.875 C-93.0655228 15.31837404 -79.13376181 4.94104411 -62.9375 -2.125 C-60.03401152 -3.16273993 -57.10256128 -4.01476731 -54.125 -4.8125 C-53.3323877 -5.02600098 -52.53977539 -5.23950195 -51.72314453 -5.45947266 C-34.93246759 -9.83115187 -14.90584361 -9.91299193 0 0 Z " fill="#242424" transform="translate(200.9375,8.125)"/>
<path d="M0 0 C3.55287743 0.99031486 5.11300516 2.18888763 7.76312065 4.72440243 C8.62766743 5.5426745 9.4922142 6.36094658 10.38295937 7.20401478 C11.28202129 8.08251654 12.18108322 8.9610183 13.10738945 9.86614132 C13.99979458 10.72701414 14.89219971 11.58788696 15.81164742 12.47484684 C18.76386973 15.34391419 21.69216903 18.23573473 24.61569023 21.13396358 C25.7303131 22.23573741 26.84507868 23.33736687 27.95997429 24.43886471 C38.03742266 34.40147999 48.08644155 44.39298055 58.1288147 54.39093781 C65.54007293 61.76884644 72.96429567 69.13318495 80.40588772 76.4804998 C85.65563877 81.66598183 90.89004466 86.86664323 96.11336887 92.07874244 C99.22764651 95.18546369 102.34835534 98.28501524 105.48590279 101.36824894 C108.43048803 104.26243491 111.35563507 107.17492797 114.26696014 110.10255718 C115.3371593 111.17215253 116.41422113 112.23493229 117.49855042 113.29020023 C126.70502521 122.26266255 126.70502521 122.26266255 126.84734917 127.40604305 C126.10738945 130.86614132 126.10738945 130.86614132 124.48238945 133.36614132 C121.37250914 135.33027625 119.74731294 135.303027 116.10738945 134.86614132 C113.45095921 132.96475792 113.45095921 132.96475792 110.72303581 130.24368954 C109.96298893 129.49768257 109.96298893 129.49768257 109.18758756 128.73660475 C107.49420794 127.0671488 105.82307578 125.37707204 104.15109062 123.68620968 C102.94126081 122.48451044 101.73015837 121.28409129 100.51788139 120.0848608 C97.22932247 116.82367446 93.96005003 113.54376818 90.69467902 110.25938392 C87.27548939 106.825011 83.84169305 103.40529352 80.41020012 99.98322201 C74.64876038 94.23270178 68.90009455 88.46963849 63.15841484 82.69939327 C56.52123683 76.02957668 49.86274044 69.38163024 43.19272631 62.74466318 C37.46690674 57.04607946 31.75287322 51.33587574 26.04850942 45.61581427 C22.64144813 42.19940125 19.23046875 38.78716556 15.80882645 35.38535023 C12.59155863 32.18542579 9.38934481 28.97115779 6.1981144 25.74527264 C5.0249828 24.56421269 3.84672482 23.38821925 2.66302109 22.21775532 C1.04666348 20.61781711 -0.55004394 19.0004989 -2.14317513 17.3774786 C-3.49066951 16.02659098 -3.49066951 16.02659098 -4.86538601 14.6484127 C-7.31690133 11.28382195 -7.80072799 9.00284835 -7.89261055 4.86614132 C-5.50091476 1.38731108 -4.33897907 -0.20079095 0 0 Z " fill="#FAFAFA" transform="translate(113.89261054992676,301.1338586807251)"/>
<path d="M0 0 C2.11010176 0.21034208 4.22037704 0.41887675 6.33067322 0.6272583 C7.73103469 0.76570609 9.13131473 0.90498023 10.5315094 1.04510498 C14.73557339 1.46308743 18.9404638 1.83465616 23.15234375 2.1640625 C24.14105469 2.24350098 25.12976563 2.32293945 26.1484375 2.40478516 C27.93553849 2.54588854 29.72329028 2.67910506 31.51171875 2.80224609 C44.03776054 3.82503781 50.57853129 8.81999005 59.26196289 17.59472656 C60.41475932 18.73774374 61.56881668 19.87949039 62.72402954 21.02006531 C65.84295855 24.10749055 68.94267685 27.2135422 72.03824925 30.32436466 C74.62709322 32.92238055 77.22533816 35.51088957 79.82365221 38.09942889 C85.95151391 44.20441901 92.06404789 50.3244547 98.16674805 56.45458984 C104.46106276 62.77674918 110.77867152 69.07490585 117.10851294 75.36147904 C122.5482067 80.76541503 127.97420026 86.18283261 133.38917726 91.61153579 C136.62107988 94.85148462 139.85770603 98.08631248 143.10716438 101.30866241 C146.15923205 104.33661498 149.19378621 107.38109164 152.21567154 110.43915749 C153.32706986 111.55821243 154.44446757 112.6713456 155.56820107 113.77801323 C157.10182844 115.29025716 158.6122592 116.82246086 160.11878967 118.3616333 C160.96989854 119.21408253 161.8210074 120.06653175 162.69790745 120.94481277 C164.9880281 124.35082659 164.84721813 126.60403827 164.5 130.625 C159.99840062 130.625 159.26730464 129.85930926 156.1978302 126.83161926 C155.65124252 126.27222153 155.10465485 125.71282379 154.54150391 125.13647461 C153.95558975 124.55275085 153.3696756 123.9690271 152.76600647 123.36761475 C150.82641999 121.43034426 148.90152071 119.47914173 146.9765625 117.52734375 C145.62982105 116.17567761 144.28226474 114.82482293 142.93392944 113.4747467 C140.10514159 110.63830875 137.28294553 107.7955307 134.46582031 104.94750977 C130.8676118 101.30989631 127.25887164 97.68297891 123.64577675 94.06015682 C120.19002166 90.59438084 116.73920242 87.12370831 113.2890625 83.65234375 C112.63566517 82.99555067 111.98226784 82.33875759 111.30907059 81.66206169 C109.44246498 79.78376779 107.57933502 77.90209624 105.71728516 76.01928711 C105.17474594 75.47405899 104.63220673 74.92883087 104.07322693 74.36708069 C100.82511317 71.07390225 97.76762497 67.67051465 94.79800987 64.12371159 C93.19234872 62.26977887 91.44946283 60.68882543 89.5625 59.125 C84.54128122 54.83882655 79.90240731 50.31838776 75.64453125 45.26953125 C70.5721478 39.44692624 65.06816252 34.043854 59.60107422 28.59570312 C57.73677699 26.73681536 55.87794734 24.87257797 54.01953125 23.0078125 C52.83105009 21.81999132 51.6422592 20.63247992 50.453125 19.4453125 C49.62340179 18.61255295 49.62340179 18.61255295 48.7769165 17.76296997 C44.75615121 13.76668435 42.13373871 11.4653564 36.44042969 10.95483398 C35.40795105 10.85810898 34.37547241 10.76138397 33.31170654 10.66172791 C32.19306213 10.56581863 31.07441772 10.46990936 29.921875 10.37109375 C28.76310852 10.26531509 27.60434204 10.15953644 26.41046143 10.05055237 C22.69097666 9.71322458 18.97054179 9.38793917 15.25 9.0625 C12.78899528 8.83993479 10.3280568 8.61663572 7.8671875 8.39257812 C-0.63156842 7.6058719 -0.63156842 7.6058719 -9.14047241 6.94563293 C-12.5 6.625 -12.5 6.625 -16.14590454 5.87504578 C-22.88640183 4.70790433 -22.88640183 4.70790433 -29.3180542 6.58864784 C-34.11768254 10.01524825 -38.04634243 14.35992413 -42.0546875 18.65234375 C-43.37244621 20.00253226 -44.69389498 21.34912822 -46.01882935 22.692276 C-49.47763587 26.21747936 -52.88608783 29.78757286 -56.28540039 33.37005615 C-59.76748272 37.02351681 -63.29301888 40.63447983 -66.81640625 44.24804688 C-70.76646132 48.30225002 -74.71159002 52.36033865 -78.62350464 56.45140076 C-79.51073715 57.37787918 -79.51073715 57.37787918 -80.41589355 58.32307434 C-81.52433912 59.48198787 -82.63065976 60.64293871 -83.73452759 61.80621338 C-84.97055922 63.0977218 -86.23245727 64.36440347 -87.5 65.625 C-87.83 65.625 -88.16 65.625 -88.5 65.625 C-89.01414825 60.70547349 -89.15359346 57.60957793 -86.34951782 53.38549805 C-85.35582143 52.36300038 -84.33721844 51.36431446 -83.29931641 50.38671875 C-82.74657547 49.83105728 -82.19383453 49.27539581 -81.62434387 48.70289612 C-79.80409007 46.88380774 -77.95403353 45.09871919 -76.1015625 43.3125 C-74.82651229 42.05171055 -73.5533751 40.78898376 -72.28207397 39.52441406 C-68.93892 36.20987382 -65.56919655 32.92366234 -62.19354248 29.64227295 C-58.7572032 26.29110451 -55.34925208 22.91131766 -51.9375 19.53515625 C-46.95814395 14.61919253 -41.97261027 9.7096568 -36.95947266 4.828125 C-36.43367111 4.31286758 -35.90786957 3.79761017 -35.36613464 3.26673889 C-26.63329743 -5.205735 -11.26066723 -1.15541076 0 0 Z " fill="#F3F3F3" transform="translate(173.5,231.375)"/>
<path d="M0 0 C3.37639397 1.1603313 5.1911263 3.08822493 7.71472168 5.59910583 C8.19595993 6.07651718 8.67719818 6.55392853 9.17301941 7.04580688 C10.18378589 8.05386014 11.18955365 9.06694763 12.19055176 10.08470154 C13.72505691 11.64067171 15.27979399 13.17409774 16.83776855 14.70652771 C17.81887176 15.69027338 18.79873384 16.67525874 19.77722168 17.66160583 C20.66707764 18.55597351 21.55693359 19.45034119 22.47375488 20.37181091 C24.41394043 22.82957458 24.41394043 22.82957458 24.41394043 26.82957458 C23.75394043 26.82957458 23.09394043 26.82957458 22.41394043 26.82957458 C22.41394043 27.48957458 22.41394043 28.14957458 22.41394043 28.82957458 C21.14953613 30.07273865 21.14953613 30.07273865 19.27722168 31.59519958 C12.68242617 37.20346366 6.69673361 43.44137391 0.60144043 49.57957458 C-0.63725666 50.82329846 -1.87618723 52.06678985 -3.11535645 53.31004333 C-5.37632062 55.57912146 -7.63598955 57.84947074 -9.8939209 60.12156677 C-11.78839489 62.02720797 -13.68415185 63.93136468 -15.58605957 65.82957458 C-19.02005578 62.51925399 -22.43723445 59.19277709 -25.83996582 55.85032654 C-26.9995625 54.71586093 -28.16360887 53.58592498 -29.33215332 52.4606781 C-31.01206398 50.8414785 -32.67524749 49.20661104 -34.33605957 47.56785583 C-35.12351562 46.81910942 -35.12351562 46.81910942 -35.92687988 46.05523682 C-38.07754159 43.90626545 -39.4947615 42.47112409 -39.93107605 39.40515137 C-39.49833465 36.17470078 -38.54527968 35.15074384 -36.2689209 32.84959412 C-35.54429153 32.10597626 -34.81966217 31.3623584 -34.07307434 30.59620667 C-33.27942978 29.8095462 -32.48578522 29.02288574 -31.66809082 28.21238708 C-30.45399788 26.98756119 -30.45399788 26.98756119 -29.21537781 25.73799133 C-27.50070349 24.01553237 -25.77959441 22.29945883 -24.0526123 20.58934021 C-21.40682558 17.96278052 -18.79166301 15.30822899 -16.17785645 12.64988708 C-14.50970655 10.98144686 -12.83984075 9.31472011 -11.16809082 7.64988708 C-9.99280571 6.45167831 -9.99280571 6.45167831 -8.79377747 5.22926331 C-8.0533873 4.50455841 -7.31299713 3.77985352 -6.5501709 3.03318787 C-5.90397293 2.38874725 -5.25777496 1.74430664 -4.59199524 1.08033752 C-2.58605957 -0.17042542 -2.58605957 -0.17042542 0 0 Z " fill="#1C1C1C" transform="translate(85.5860595703125,210.17042541503906)"/>
<path d="M0 0 C3.24252965 1.55489915 5.50921137 3.73966322 7.96484375 6.30151367 C8.46827805 6.81060776 8.97171234 7.31970184 9.49040222 7.84422302 C11.08920715 9.46533953 12.67350856 11.09982876 14.2578125 12.73510742 C15.34216963 13.83953625 16.42744658 14.94306279 17.51367188 16.0456543 C20.16832162 18.74430191 22.81005376 21.45502653 25.4453125 24.17260742 C19.77957201 31.10071466 13.41497611 37.31464885 7.0703125 43.61010742 C5.94117295 44.73422209 4.81226472 45.85856916 3.68359375 46.9831543 C0.94016062 49.71565977 -1.80638735 52.44499751 -4.5546875 55.17260742 C-9.98019007 52.88583183 -13.72262026 48.41439304 -17.82861328 44.32421875 C-19.30192159 42.86285091 -20.79285545 41.42118309 -22.28515625 39.97924805 C-23.21457031 39.05692383 -24.14398438 38.13459961 -25.1015625 37.18432617 C-25.95588867 36.34345459 -26.81021484 35.50258301 -27.69042969 34.63623047 C-29.5546875 32.17260742 -29.5546875 32.17260742 -30.19116211 29.76123047 C-29.22308972 25.82395715 -26.62529848 23.50997149 -23.82421875 20.74291992 C-23.23678391 20.14832977 -22.64934906 19.55373962 -22.04411316 18.94113159 C-20.80021991 17.68946266 -19.54990089 16.44415146 -18.29370117 15.20483398 C-16.37201447 13.30238606 -14.48146907 11.37242247 -12.59179688 9.43823242 C-11.37937585 8.22552107 -10.16523852 7.01452268 -8.94921875 5.80541992 C-8.38443314 5.22535187 -7.81964752 4.64528381 -7.23774719 4.04763794 C-3.29859798 0.22286972 -3.29859798 0.22286972 0 0 Z " fill="#1A1A1A" transform="translate(51.5546875,185.827392578125)"/>
<path d="M0 0 C4.10337558 0.52581684 5.9744409 2.62763291 8.80859375 5.515625 C9.72060547 6.43730469 10.63261719 7.35898437 11.57226562 8.30859375 C12.52753885 9.28887242 13.48261541 10.26934276 14.4375 11.25 C15.38797203 12.21553318 16.33913735 13.1803844 17.29101562 14.14453125 C19.05349674 15.93313241 20.81287639 17.72479892 22.56811523 19.52050781 C24.27207216 21.25782199 25.98699531 22.98441667 27.70996094 24.70288086 C30.34196269 27.34301993 32.64855197 30.11107813 35 33 C33.66169995 35.99648645 32.22612398 38.0866637 29.8125 40.3125 C29.26207031 40.84488281 28.71164063 41.37726563 28.14453125 41.92578125 C24.79269632 43.60475139 22.59496594 42.87278653 19 42 C16.62545933 40.20783163 14.71763185 38.56161477 12.6640625 36.4609375 C12.09924164 35.90185699 11.53442078 35.34277649 10.95248413 34.76675415 C9.7670906 33.58542785 8.58917736 32.39655297 7.41845703 31.20068359 C5.63004468 29.38013532 3.81186741 27.59383002 1.98828125 25.80859375 C0.83661307 24.65296045 -0.31319233 23.49546713 -1.4609375 22.3359375 C-2.0025351 21.80648529 -2.54413269 21.27703308 -3.10214233 20.73153687 C-6.7019499 16.99498073 -7.91982913 14.1870937 -8 9 C-6.34765625 6.34765625 -6.34765625 6.34765625 -4.0625 4.0625 C-3.31097656 3.29035156 -2.55945313 2.51820313 -1.78515625 1.72265625 C-1.19605469 1.15417969 -0.60695313 0.58570313 0 0 Z " fill="#333333" transform="translate(77,319)"/>
<path d="M0 0 C2.49127762 1.58842363 4.6283668 3.51796608 6.8125 5.5 C7.40998047 6.02464844 8.00746094 6.54929688 8.62304688 7.08984375 C10.09173282 8.38228738 11.54720498 9.68971928 13 11 C12.14749522 15.23588313 10.07040147 17.13046591 7 20 C5.41091729 21.55665245 3.82796851 23.11958225 2.25 24.6875 C1.47140625 25.45449219 0.6928125 26.22148437 -0.109375 27.01171875 C-2.05230615 28.8610699 -2.05230615 28.8610699 -3 31 C-3.66 31 -4.32 31 -5 31 C-5 31.66 -5 32.32 -5 33 C-5.66 33 -6.32 33 -7 33 C-7 33.66 -7 34.32 -7 35 C-11.054084 34.47120643 -12.90529007 32.43668381 -15.6875 29.5625 C-16.47511719 28.75941406 -17.26273438 27.95632812 -18.07421875 27.12890625 C-20.95287044 23.94662396 -21.52066417 21.51241766 -21.46386719 17.17919922 C-20.55374975 12.90356331 -17.25796866 10.39811253 -14.125 7.5625 C-13.47402344 6.93923828 -12.82304687 6.31597656 -12.15234375 5.67382812 C-5.34529092 -0.77532811 -5.34529092 -0.77532811 0 0 Z " fill="#171717" transform="translate(30,173)"/>
<path d="M0 0 C7.27287449 6.33602964 12.57604371 14.31805754 13.4765625 24.05859375 C14.09846925 35.93366905 11.5157777 45.18928838 3.75 54.4375 C-0.22299911 58.56356272 -4.52824267 62.09124744 -10 64 C-10.66 63.67 -11.32 63.34 -12 63 C-11.41992188 62.55011719 -10.83984375 62.10023437 -10.2421875 61.63671875 C-2.98433358 55.66036709 2.65732842 48.55416828 4 39 C5.10957123 26.17672742 3.16272351 17.47273572 -4.8125 7.0625 C-12.831983 -1.52085289 -24.71918593 -4.31702796 -36 -5 C-27.02270105 -13.97729895 -8.52128984 -5.78851467 0 0 Z " fill="#292929" transform="translate(211,40)"/>
<path d="M0 0 C3.23618574 1.56639661 5.50904834 3.75047946 7.96484375 6.3125 C8.46827805 6.82159409 8.97171234 7.33068817 9.49040222 7.85520935 C11.08920715 9.47632586 12.67350856 11.11081509 14.2578125 12.74609375 C15.34216963 13.85052258 16.42744658 14.95404912 17.51367188 16.05664062 C20.16832162 18.75528823 22.81005376 21.46601286 25.4453125 24.18359375 C22.9703125 26.65859375 22.9703125 26.65859375 20.4453125 29.18359375 C17.52520513 26.29717993 14.66698487 23.36769937 11.8515625 20.37890625 C10.5497551 19.02187066 9.24766636 17.6651049 7.9453125 16.30859375 C6.96884766 15.25671875 6.96884766 15.25671875 5.97265625 14.18359375 C5.01552734 13.19746094 5.01552734 13.19746094 4.0390625 12.19140625 C3.18344727 11.28865967 3.18344727 11.28865967 2.31054688 10.36767578 C0.47421123 8.96532218 0.47421123 8.96532218 -1.96606445 9.20239258 C-5.3373073 10.48024083 -7.07010237 12.27871959 -9.56640625 14.875 C-10.48873047 15.81923828 -11.41105469 16.76347656 -12.36132812 17.73632812 C-13.32231881 18.7389088 -14.28259735 19.74217251 -15.2421875 20.74609375 C-17.13557855 22.7121011 -19.03688809 24.66969469 -20.94140625 26.625 C-21.77889404 27.49842041 -22.61638184 28.37184082 -23.47924805 29.27172852 C-25.5546875 31.18359375 -25.5546875 31.18359375 -27.5546875 31.18359375 C-27.5546875 30.19359375 -27.5546875 29.20359375 -27.5546875 28.18359375 C-28.2146875 27.85359375 -28.8746875 27.52359375 -29.5546875 27.18359375 C-25.82024095 23.30093979 -22.06658315 19.43833425 -18.29370117 15.59301758 C-17.01282427 14.28194892 -15.73738155 12.9655484 -14.4675293 11.64379883 C-12.64209918 9.74566513 -10.79803872 7.86751103 -8.94921875 5.9921875 C-8.10204033 5.09855751 -8.10204033 5.09855751 -7.23774719 4.18687439 C-3.29066963 0.23648543 -3.29066963 0.23648543 0 0 Z " fill="#282828" transform="translate(51.5546875,185.81640625)"/>
<path d="M0 0 C-0.50789063 0.268125 -1.01578125 0.53625 -1.5390625 0.8125 C-8.26043924 4.63890174 -12.44463746 9.18229194 -15.375 16.375 C-17.16297502 26.74525509 -15.57555919 34.42633421 -9.875 43.3125 C-4.79695481 48.05936833 1.15044792 50.8624851 8 52 C8 52.33 8 52.66 8 53 C-1.36295127 53.7924755 -7.60261882 53.0121038 -15 47 C-21.06899802 41.19487145 -24.16064435 33.7926701 -24.5 25.4375 C-24.17236262 17.69433661 -21.0525631 11.26529849 -15.84375 5.578125 C-11.45369504 1.82053558 -5.8210978 -2.14602684 0 0 Z " fill="#2F2F2F" transform="translate(168,46)"/>
<path d="M0 0 C3.03978021 0.68164768 4.80055419 2.23591662 6.93359375 4.43359375 C8.48383839 7.53408303 8.2235139 10.01253593 7.93359375 13.43359375 C6.39521768 16.38214789 5.27283085 17.98065761 2.0625 19.06640625 C-1.51287843 19.70172869 -3.56741865 19.65054488 -6.94140625 18.18359375 C-10.24195732 15.46549287 -11.02120247 13.83397012 -11.50390625 9.55859375 C-11.39909977 6.21711671 -11.02761741 5.37541049 -9.06640625 2.43359375 C-5.71397384 0.19863881 -3.9372435 -0.24561254 0 0 Z " fill="#FBFBFB" transform="translate(248.06640625,348.56640625)"/>
<path d="M0 0 C3.82838766 0.91791751 5.43621117 2.46342703 8.00390625 5.48046875 C8.64297205 9.45687818 8.39116439 11.65062987 6.69140625 15.29296875 C5.00390625 17.48046875 5.00390625 17.48046875 2.00390625 19.48046875 C-2.20787618 19.94844458 -4.28208489 19.9461267 -7.87109375 17.60546875 C-10.78320033 14.69336217 -10.9567768 13.88019105 -11.37109375 9.66796875 C-11.30936692 6.27916605 -10.98476166 5.46347061 -8.99609375 2.48046875 C-5.86772779 0.39489144 -3.77707364 -0.26518354 0 0 Z " fill="#F7F7F7" transform="translate(184.99609375,285.51953125)"/>
<path d="M0 0 C3.82838766 0.91791751 5.43621117 2.46342703 8.00390625 5.48046875 C8.63796291 9.4257102 8.37235607 11.65145666 6.75390625 15.29296875 C4.0971859 18.61386918 2.25284442 19.32102983 -1.93359375 19.85546875 C-5.73291805 19.39024537 -7.28247809 18.11655254 -9.99609375 15.48046875 C-11.61197754 12.24870118 -11.57060782 8.97431592 -10.99609375 5.48046875 C-8.06464375 1.08329375 -5.37791631 -0.37757667 0 0 Z " fill="#F8F8F8" transform="translate(226.99609375,327.51953125)"/>
<path d="M0 0 C3.29744513 0.69945806 4.7979897 1.82154528 6.93359375 4.41015625 C8.27559179 8.40280882 8.35756252 11.38370555 6.74609375 15.28515625 C4.00295799 18.50124646 2.16978122 19.25234508 -2.00390625 19.78515625 C-5.80323055 19.31993287 -7.35279059 18.04624004 -10.06640625 15.41015625 C-11.68229004 12.17838868 -11.64092032 8.90400342 -11.06640625 5.41015625 C-8.03232789 0.85903871 -5.28165251 -0.38938459 0 0 Z " fill="#F8F8F8" transform="translate(206.06640625,306.58984375)"/>
<path d="M0 0 C3.02892499 1.33059804 4.78163422 2.95710705 7.08984375 5.328125 C7.93095703 6.18212891 8.77207031 7.03613281 9.63867188 7.91601562 C10.50298828 8.81384766 11.36730469 9.71167969 12.2578125 10.63671875 C13.14146484 11.53841797 14.02511719 12.44011719 14.93554688 13.36914062 C17.11473312 15.59544441 19.28404167 17.83054134 21.4453125 20.07421875 C20.7853125 20.73421875 20.1253125 21.39421875 19.4453125 22.07421875 C18.92622314 21.5237085 18.40713379 20.97319824 17.87231445 20.40600586 C15.51656696 17.92570462 13.13779201 15.46876776 10.7578125 13.01171875 C9.53288086 11.71137695 9.53288086 11.71137695 8.28320312 10.38476562 C7.08920898 9.16176758 7.08920898 9.16176758 5.87109375 7.9140625 C5.14317627 7.15472412 4.41525879 6.39538574 3.6652832 5.61303711 C1.55860951 3.84679959 1.55860951 3.84679959 -1.01367188 4.04101562 C-4.31942819 5.38517019 -6.14512835 7.21289128 -8.63671875 9.765625 C-9.09576096 10.230327 -9.55480316 10.69502899 -10.02775574 11.17381287 C-11.48393485 12.65228558 -12.92554654 14.14408032 -14.3671875 15.63671875 C-15.35518848 16.64479382 -16.34411154 17.65196605 -17.33398438 18.65820312 C-19.75165143 21.11984329 -22.15645334 23.59362548 -24.5546875 26.07421875 C-24.8846875 25.08421875 -25.2146875 24.09421875 -25.5546875 23.07421875 C-22.38995303 19.76119083 -19.20601502 16.46835351 -16.00268555 13.19262695 C-14.91579889 12.07556252 -13.83435739 10.95317306 -12.75854492 9.82543945 C-11.21112026 8.20524516 -9.64512427 6.60520905 -8.07421875 5.0078125 C-7.59692825 4.49955429 -7.11963776 3.99129608 -6.62788391 3.46763611 C-4.42302802 1.26060849 -3.18260444 0.09246099 0 0 Z " fill="#E8E8E8" transform="translate(50.5546875,190.92578125)"/>
<path d="M0 0 C2.18328857 0.35218811 2.18328857 0.35218811 4 1 C2.02 1.99 2.02 1.99 0 3 C0.66 3.66 1.32 4.32 2 5 C1.27385498 5.40089844 0.54770996 5.80179688 -0.20043945 6.21484375 C-3.13251356 8.08449805 -5.34284552 10.09977656 -7.79296875 12.5625 C-8.67017578 13.44164062 -9.54738281 14.32078125 -10.45117188 15.2265625 C-11.35416016 16.14179688 -12.25714844 17.05703125 -13.1875 18 C-14.10208984 18.91523438 -15.01667969 19.83046875 -15.95898438 20.7734375 C-20.82632371 25.59763156 -20.82632371 25.59763156 -25 31 C-25 30.01 -25 29.02 -25 28 C-25.66 27.67 -26.32 27.34 -27 27 C-23.24398282 23.1205795 -19.47197568 19.2577266 -15.68408203 15.40942383 C-14.39730263 14.0974676 -13.11504214 12.78106348 -11.83740234 11.46020508 C-10.00221121 9.56450531 -8.15146937 7.6852906 -6.296875 5.80859375 C-5.7269281 5.21284042 -5.1569812 4.6170871 -4.56976318 4.00328064 C-2.93261719 2.36499023 -2.93261719 2.36499023 0 0 Z " fill="#393939" transform="translate(49,186)"/>
<path d="M0 0 C0.86625 0.37125 0.86625 0.37125 1.75 0.75 C-0.23 1.74 -0.23 1.74 -2.25 2.75 C-1.59 3.41 -0.93 4.07 -0.25 4.75 C-5 7.625 -5 7.625 -7.25 8.75 C-6.89947365 5.59526281 -6.38480924 3.9266466 -4.4375 1.375 C-2.25 -0.25 -2.25 -0.25 0 0 Z " fill="#3F3F3F" transform="translate(51.25,186.25)"/>
<path d="M0 0 C2.015625 1.08203125 2.015625 1.08203125 4 3 C4.171875 6.13671875 4.171875 6.13671875 3.75 9.6875 C3.62109375 10.86699219 3.4921875 12.04648438 3.359375 13.26171875 C3.24078125 14.16535156 3.1221875 15.06898437 3 16 C2.67 16 2.34 16 2 16 C1.93941406 15.26394531 1.87882813 14.52789062 1.81640625 13.76953125 C1.73261719 12.79371094 1.64882812 11.81789063 1.5625 10.8125 C1.48128906 9.84957031 1.40007812 8.88664062 1.31640625 7.89453125 C1.02333849 5.21350398 0.57296246 2.6337014 0 0 Z " fill="#616161" transform="translate(180,88)"/>
<path d="M0 0 C4.04256383 1.22217046 7.49288959 2.62754296 11 5 C11 5.33 11 5.66 11 6 C9.02 6 7.04 6 5 6 C5 5.34 5 4.68 5 4 C3.35178756 2.96986723 1.68496298 1.96885372 0 1 C0 0.67 0 0.34 0 0 Z " fill="#BBBBBB" transform="translate(90,117)"/>
<path d="M0 0 C0.625 1.875 0.625 1.875 1 4 C0.34 4.66 -0.32 5.32 -1 6 C-3.125 5.625 -3.125 5.625 -5 5 C-3.35 3.35 -1.7 1.7 0 0 Z " fill="#333333" transform="translate(43,192)"/>
<path d="M0 0 C0.33 0 0.66 0 1 0 C1 2.31 1 4.62 1 7 C-0.32 7.33 -1.64 7.66 -3 8 C-2.45276317 4.62537285 -1.9451 2.91765 0 0 Z " fill="#E2E2E2" transform="translate(114,134)"/>
</svg>
